<mxfile host="Electron" modified="2023-08-06T08:50:34.546Z" agent="Mozilla/5.0 (X11; Linux x86_64) AppleWebKit/537.36 (KHTML, like Gecko) draw.io/21.6.5 Chrome/114.0.5735.134 Electron/25.3.1 Safari/537.36" etag="odegKprp0bvWGjE5WyzC" version="21.6.5" type="device">
  <diagram name="Page-1" id="Ks2FxNPYB5mkX4lFX_G9">
    <mxGraphModel dx="2363" dy="1448" grid="1" gridSize="10" guides="1" tooltips="1" connect="1" arrows="1" fold="1" page="1" pageScale="1" pageWidth="850" pageHeight="1100" math="0" shadow="0">
      <root>
        <mxCell id="0" />
        <mxCell id="1" parent="0" />
        <mxCell id="DlSPAlc_z_FnGC_MYQ6c-51" value="" style="rounded=1;whiteSpace=wrap;html=1;strokeColor=default;fontFamily=Helvetica;fontSize=12;fontColor=default;fillColor=default;" vertex="1" parent="1">
          <mxGeometry x="850" y="720" width="680" height="350" as="geometry" />
        </mxCell>
        <mxCell id="DlSPAlc_z_FnGC_MYQ6c-69" value="" style="rounded=1;whiteSpace=wrap;html=1;strokeColor=default;fontFamily=Helvetica;fontSize=12;fontColor=default;fillColor=default;" vertex="1" parent="1">
          <mxGeometry x="840" y="1110" width="680" height="350" as="geometry" />
        </mxCell>
        <mxCell id="DlSPAlc_z_FnGC_MYQ6c-36" value="" style="rounded=1;whiteSpace=wrap;html=1;strokeColor=default;fontFamily=Helvetica;fontSize=12;fontColor=default;fillColor=default;" vertex="1" parent="1">
          <mxGeometry x="120" y="720" width="680" height="350" as="geometry" />
        </mxCell>
        <mxCell id="DlSPAlc_z_FnGC_MYQ6c-1" value="&lt;h1&gt;Какие данные используются&lt;/h1&gt;&lt;p&gt;&lt;/p&gt;&lt;ul style=&quot;font-size: 16px;&quot;&gt;&lt;li&gt;Account:&amp;nbsp; Role, AuthInfo, Balance&lt;/li&gt;&lt;li&gt;Task: Description, Status, Assignee&lt;/li&gt;&lt;li&gt;Stats: Topmsalary, MaxPriceDay, MaxPticeWeek, MaxpriceMonth&lt;/li&gt;&lt;/ul&gt;&lt;p&gt;&lt;/p&gt;" style="text;html=1;strokeColor=none;fillColor=none;spacing=5;spacingTop=-20;whiteSpace=wrap;overflow=hidden;rounded=0;" vertex="1" parent="1">
          <mxGeometry x="20" y="20" width="620" height="150" as="geometry" />
        </mxCell>
        <mxCell id="DlSPAlc_z_FnGC_MYQ6c-5" style="rounded=0;orthogonalLoop=1;jettySize=auto;html=1;exitX=0.25;exitY=1;exitDx=0;exitDy=0;entryX=0.5;entryY=0;entryDx=0;entryDy=0;fontFamily=Helvetica;fontSize=12;fontColor=default;" edge="1" parent="1" source="DlSPAlc_z_FnGC_MYQ6c-2" target="DlSPAlc_z_FnGC_MYQ6c-3">
          <mxGeometry relative="1" as="geometry" />
        </mxCell>
        <mxCell id="DlSPAlc_z_FnGC_MYQ6c-7" style="edgeStyle=none;shape=connector;rounded=0;orthogonalLoop=1;jettySize=auto;html=1;exitX=0.5;exitY=1;exitDx=0;exitDy=0;entryX=0.5;entryY=0;entryDx=0;entryDy=0;labelBackgroundColor=default;strokeColor=default;fontFamily=Helvetica;fontSize=12;fontColor=default;endArrow=classic;" edge="1" parent="1" source="DlSPAlc_z_FnGC_MYQ6c-2" target="DlSPAlc_z_FnGC_MYQ6c-6">
          <mxGeometry relative="1" as="geometry" />
        </mxCell>
        <mxCell id="DlSPAlc_z_FnGC_MYQ6c-9" style="edgeStyle=none;shape=connector;rounded=0;orthogonalLoop=1;jettySize=auto;html=1;exitX=0.75;exitY=1;exitDx=0;exitDy=0;entryX=0.5;entryY=0;entryDx=0;entryDy=0;labelBackgroundColor=default;strokeColor=default;fontFamily=Helvetica;fontSize=12;fontColor=default;endArrow=classic;" edge="1" parent="1" source="DlSPAlc_z_FnGC_MYQ6c-2" target="DlSPAlc_z_FnGC_MYQ6c-8">
          <mxGeometry relative="1" as="geometry" />
        </mxCell>
        <mxCell id="DlSPAlc_z_FnGC_MYQ6c-11" style="edgeStyle=none;shape=connector;rounded=0;orthogonalLoop=1;jettySize=auto;html=1;exitX=1;exitY=0.5;exitDx=0;exitDy=0;entryX=0;entryY=0.5;entryDx=0;entryDy=0;labelBackgroundColor=default;strokeColor=default;fontFamily=Helvetica;fontSize=12;fontColor=default;endArrow=classic;" edge="1" parent="1" source="DlSPAlc_z_FnGC_MYQ6c-2" target="DlSPAlc_z_FnGC_MYQ6c-10">
          <mxGeometry relative="1" as="geometry" />
        </mxCell>
        <mxCell id="DlSPAlc_z_FnGC_MYQ6c-35" style="edgeStyle=none;shape=connector;rounded=0;orthogonalLoop=1;jettySize=auto;html=1;exitX=0;exitY=0.5;exitDx=0;exitDy=0;entryX=1;entryY=0.5;entryDx=0;entryDy=0;labelBackgroundColor=default;strokeColor=default;fontFamily=Helvetica;fontSize=12;fontColor=default;endArrow=classic;" edge="1" parent="1" source="DlSPAlc_z_FnGC_MYQ6c-2" target="DlSPAlc_z_FnGC_MYQ6c-34">
          <mxGeometry relative="1" as="geometry" />
        </mxCell>
        <mxCell id="DlSPAlc_z_FnGC_MYQ6c-2" value="&lt;font style=&quot;font-size: 20px;&quot;&gt;&lt;b&gt;Account&lt;/b&gt;&lt;/font&gt;" style="rounded=1;whiteSpace=wrap;html=1;" vertex="1" parent="1">
          <mxGeometry x="735" y="330" width="120" height="60" as="geometry" />
        </mxCell>
        <mxCell id="DlSPAlc_z_FnGC_MYQ6c-3" value="&lt;font style=&quot;font-size: 20px;&quot;&gt;Role&lt;br&gt;&lt;/font&gt;" style="rounded=1;whiteSpace=wrap;html=1;" vertex="1" parent="1">
          <mxGeometry x="505" y="450" width="120" height="60" as="geometry" />
        </mxCell>
        <mxCell id="DlSPAlc_z_FnGC_MYQ6c-6" value="&lt;font style=&quot;font-size: 20px;&quot;&gt;AuthInfo&lt;br&gt;&lt;/font&gt;" style="rounded=1;whiteSpace=wrap;html=1;" vertex="1" parent="1">
          <mxGeometry x="665" y="450" width="120" height="60" as="geometry" />
        </mxCell>
        <mxCell id="DlSPAlc_z_FnGC_MYQ6c-8" value="&lt;font style=&quot;font-size: 20px;&quot;&gt;Balance&lt;br&gt;&lt;/font&gt;" style="rounded=1;whiteSpace=wrap;html=1;" vertex="1" parent="1">
          <mxGeometry x="815" y="450" width="120" height="60" as="geometry" />
        </mxCell>
        <mxCell id="DlSPAlc_z_FnGC_MYQ6c-13" style="edgeStyle=none;shape=connector;rounded=0;orthogonalLoop=1;jettySize=auto;html=1;exitX=0.25;exitY=1;exitDx=0;exitDy=0;entryX=0.5;entryY=0;entryDx=0;entryDy=0;labelBackgroundColor=default;strokeColor=default;fontFamily=Helvetica;fontSize=12;fontColor=default;endArrow=classic;" edge="1" parent="1" source="DlSPAlc_z_FnGC_MYQ6c-10" target="DlSPAlc_z_FnGC_MYQ6c-12">
          <mxGeometry relative="1" as="geometry" />
        </mxCell>
        <mxCell id="DlSPAlc_z_FnGC_MYQ6c-15" style="edgeStyle=none;shape=connector;rounded=0;orthogonalLoop=1;jettySize=auto;html=1;exitX=0.5;exitY=1;exitDx=0;exitDy=0;entryX=0.5;entryY=0;entryDx=0;entryDy=0;labelBackgroundColor=default;strokeColor=default;fontFamily=Helvetica;fontSize=12;fontColor=default;endArrow=classic;" edge="1" parent="1" source="DlSPAlc_z_FnGC_MYQ6c-10" target="DlSPAlc_z_FnGC_MYQ6c-14">
          <mxGeometry relative="1" as="geometry" />
        </mxCell>
        <mxCell id="DlSPAlc_z_FnGC_MYQ6c-19" style="edgeStyle=none;shape=connector;rounded=0;orthogonalLoop=1;jettySize=auto;html=1;exitX=0.75;exitY=1;exitDx=0;exitDy=0;entryX=0.25;entryY=0;entryDx=0;entryDy=0;labelBackgroundColor=default;strokeColor=default;fontFamily=Helvetica;fontSize=12;fontColor=default;endArrow=classic;" edge="1" parent="1" source="DlSPAlc_z_FnGC_MYQ6c-10" target="DlSPAlc_z_FnGC_MYQ6c-18">
          <mxGeometry relative="1" as="geometry" />
        </mxCell>
        <mxCell id="DlSPAlc_z_FnGC_MYQ6c-10" value="&lt;font style=&quot;font-size: 20px;&quot;&gt;&lt;b&gt;Task&lt;/b&gt;&lt;/font&gt;" style="rounded=1;whiteSpace=wrap;html=1;" vertex="1" parent="1">
          <mxGeometry x="985" y="330" width="120" height="60" as="geometry" />
        </mxCell>
        <mxCell id="DlSPAlc_z_FnGC_MYQ6c-12" value="&lt;font style=&quot;font-size: 20px;&quot;&gt;Descr&lt;/font&gt;" style="rounded=1;whiteSpace=wrap;html=1;" vertex="1" parent="1">
          <mxGeometry x="1035" y="450" width="120" height="60" as="geometry" />
        </mxCell>
        <mxCell id="DlSPAlc_z_FnGC_MYQ6c-14" value="&lt;font style=&quot;font-size: 20px;&quot;&gt;Status&lt;/font&gt;" style="rounded=1;whiteSpace=wrap;html=1;" vertex="1" parent="1">
          <mxGeometry x="1165" y="450" width="120" height="60" as="geometry" />
        </mxCell>
        <mxCell id="DlSPAlc_z_FnGC_MYQ6c-18" value="&lt;font style=&quot;font-size: 20px;&quot;&gt;Assignee&lt;/font&gt;" style="rounded=1;whiteSpace=wrap;html=1;" vertex="1" parent="1">
          <mxGeometry x="1315" y="450" width="120" height="60" as="geometry" />
        </mxCell>
        <mxCell id="DlSPAlc_z_FnGC_MYQ6c-26" style="edgeStyle=none;shape=connector;rounded=0;orthogonalLoop=1;jettySize=auto;html=1;exitX=0;exitY=0.5;exitDx=0;exitDy=0;entryX=0.5;entryY=0;entryDx=0;entryDy=0;labelBackgroundColor=default;strokeColor=default;fontFamily=Helvetica;fontSize=12;fontColor=default;endArrow=classic;" edge="1" parent="1" source="DlSPAlc_z_FnGC_MYQ6c-21" target="DlSPAlc_z_FnGC_MYQ6c-22">
          <mxGeometry relative="1" as="geometry" />
        </mxCell>
        <mxCell id="DlSPAlc_z_FnGC_MYQ6c-27" style="edgeStyle=none;shape=connector;rounded=0;orthogonalLoop=1;jettySize=auto;html=1;exitX=0.5;exitY=1;exitDx=0;exitDy=0;entryX=0.5;entryY=0;entryDx=0;entryDy=0;labelBackgroundColor=default;strokeColor=default;fontFamily=Helvetica;fontSize=12;fontColor=default;endArrow=classic;" edge="1" parent="1" source="DlSPAlc_z_FnGC_MYQ6c-21" target="DlSPAlc_z_FnGC_MYQ6c-24">
          <mxGeometry relative="1" as="geometry" />
        </mxCell>
        <mxCell id="DlSPAlc_z_FnGC_MYQ6c-21" value="&lt;font style=&quot;font-size: 20px;&quot;&gt;&lt;b&gt;Stats&lt;/b&gt;&lt;/font&gt;" style="rounded=1;whiteSpace=wrap;html=1;" vertex="1" parent="1">
          <mxGeometry x="970" y="140" width="120" height="60" as="geometry" />
        </mxCell>
        <mxCell id="DlSPAlc_z_FnGC_MYQ6c-22" value="&lt;font style=&quot;font-size: 20px;&quot;&gt;Topmsalary&lt;/font&gt;" style="rounded=1;whiteSpace=wrap;html=1;" vertex="1" parent="1">
          <mxGeometry x="810" y="230" width="120" height="60" as="geometry" />
        </mxCell>
        <mxCell id="DlSPAlc_z_FnGC_MYQ6c-24" value="&lt;span style=&quot;font-size: 20px;&quot;&gt;MaxPrice&lt;/span&gt;" style="rounded=1;whiteSpace=wrap;html=1;" vertex="1" parent="1">
          <mxGeometry x="960" y="230" width="120" height="60" as="geometry" />
        </mxCell>
        <mxCell id="DlSPAlc_z_FnGC_MYQ6c-34" value="&lt;font style=&quot;font-size: 20px;&quot;&gt;AuditLog&lt;br&gt;&lt;/font&gt;" style="rounded=1;whiteSpace=wrap;html=1;" vertex="1" parent="1">
          <mxGeometry x="495" y="330" width="120" height="60" as="geometry" />
        </mxCell>
        <mxCell id="DlSPAlc_z_FnGC_MYQ6c-37" value="&lt;font size=&quot;1&quot; style=&quot;&quot;&gt;&lt;b style=&quot;font-size: 24px;&quot;&gt;Домены&lt;/b&gt;&lt;/font&gt;" style="text;html=1;strokeColor=none;fillColor=none;align=center;verticalAlign=middle;whiteSpace=wrap;rounded=0;fontSize=12;fontFamily=Helvetica;fontColor=default;" vertex="1" parent="1">
          <mxGeometry x="110" y="640" width="120" height="50" as="geometry" />
        </mxCell>
        <mxCell id="DlSPAlc_z_FnGC_MYQ6c-38" value="&lt;pre&gt;&lt;font style=&quot;font-size: 20px;&quot;&gt;Account domen&lt;/font&gt;&lt;/pre&gt;" style="text;html=1;strokeColor=none;fillColor=none;align=center;verticalAlign=middle;whiteSpace=wrap;rounded=0;fontSize=12;fontFamily=Helvetica;fontColor=default;" vertex="1" parent="1">
          <mxGeometry x="180" y="740" width="190" height="20" as="geometry" />
        </mxCell>
        <mxCell id="DlSPAlc_z_FnGC_MYQ6c-80" style="edgeStyle=none;shape=connector;rounded=0;orthogonalLoop=1;jettySize=auto;html=1;exitX=0.5;exitY=1;exitDx=0;exitDy=0;entryX=0.5;entryY=0;entryDx=0;entryDy=0;labelBackgroundColor=default;strokeColor=default;fontFamily=Helvetica;fontSize=12;fontColor=default;endArrow=classic;" edge="1" parent="1" source="DlSPAlc_z_FnGC_MYQ6c-39" target="DlSPAlc_z_FnGC_MYQ6c-40">
          <mxGeometry relative="1" as="geometry" />
        </mxCell>
        <mxCell id="DlSPAlc_z_FnGC_MYQ6c-81" style="edgeStyle=none;shape=connector;rounded=0;orthogonalLoop=1;jettySize=auto;html=1;exitX=0.75;exitY=1;exitDx=0;exitDy=0;entryX=0;entryY=0.25;entryDx=0;entryDy=0;labelBackgroundColor=default;strokeColor=default;fontFamily=Helvetica;fontSize=12;fontColor=default;endArrow=classic;" edge="1" parent="1" source="DlSPAlc_z_FnGC_MYQ6c-39" target="DlSPAlc_z_FnGC_MYQ6c-3">
          <mxGeometry relative="1" as="geometry" />
        </mxCell>
        <mxCell id="DlSPAlc_z_FnGC_MYQ6c-39" value="&lt;font style=&quot;font-size: 20px;&quot;&gt;Auth&lt;/font&gt;" style="rounded=1;whiteSpace=wrap;html=1;" vertex="1" parent="1">
          <mxGeometry x="220" y="280" width="120" height="40" as="geometry" />
        </mxCell>
        <mxCell id="DlSPAlc_z_FnGC_MYQ6c-40" value="&lt;font style=&quot;font-size: 20px;&quot;&gt;AuthInfo&lt;br&gt;&lt;/font&gt;" style="rounded=1;whiteSpace=wrap;html=1;" vertex="1" parent="1">
          <mxGeometry x="230" y="410" width="120" height="60" as="geometry" />
        </mxCell>
        <mxCell id="DlSPAlc_z_FnGC_MYQ6c-42" style="rounded=0;orthogonalLoop=1;jettySize=auto;html=1;exitX=0.25;exitY=1;exitDx=0;exitDy=0;entryX=0.5;entryY=0;entryDx=0;entryDy=0;fontFamily=Helvetica;fontSize=12;fontColor=default;" edge="1" source="DlSPAlc_z_FnGC_MYQ6c-46" target="DlSPAlc_z_FnGC_MYQ6c-47" parent="1">
          <mxGeometry relative="1" as="geometry" />
        </mxCell>
        <mxCell id="DlSPAlc_z_FnGC_MYQ6c-43" style="edgeStyle=none;shape=connector;rounded=0;orthogonalLoop=1;jettySize=auto;html=1;exitX=0.5;exitY=1;exitDx=0;exitDy=0;entryX=0.5;entryY=0;entryDx=0;entryDy=0;labelBackgroundColor=default;strokeColor=default;fontFamily=Helvetica;fontSize=12;fontColor=default;endArrow=classic;" edge="1" source="DlSPAlc_z_FnGC_MYQ6c-46" target="DlSPAlc_z_FnGC_MYQ6c-48" parent="1">
          <mxGeometry relative="1" as="geometry" />
        </mxCell>
        <mxCell id="DlSPAlc_z_FnGC_MYQ6c-44" style="edgeStyle=none;shape=connector;rounded=0;orthogonalLoop=1;jettySize=auto;html=1;exitX=0.75;exitY=1;exitDx=0;exitDy=0;entryX=0.5;entryY=0;entryDx=0;entryDy=0;labelBackgroundColor=default;strokeColor=default;fontFamily=Helvetica;fontSize=12;fontColor=default;endArrow=classic;" edge="1" source="DlSPAlc_z_FnGC_MYQ6c-46" target="DlSPAlc_z_FnGC_MYQ6c-49" parent="1">
          <mxGeometry relative="1" as="geometry" />
        </mxCell>
        <mxCell id="DlSPAlc_z_FnGC_MYQ6c-45" style="edgeStyle=none;shape=connector;rounded=0;orthogonalLoop=1;jettySize=auto;html=1;exitX=0;exitY=0.5;exitDx=0;exitDy=0;entryX=1;entryY=0.5;entryDx=0;entryDy=0;labelBackgroundColor=default;strokeColor=default;fontFamily=Helvetica;fontSize=12;fontColor=default;endArrow=classic;" edge="1" source="DlSPAlc_z_FnGC_MYQ6c-46" target="DlSPAlc_z_FnGC_MYQ6c-50" parent="1">
          <mxGeometry relative="1" as="geometry" />
        </mxCell>
        <mxCell id="DlSPAlc_z_FnGC_MYQ6c-108" style="edgeStyle=none;shape=connector;rounded=0;orthogonalLoop=1;jettySize=auto;html=1;exitX=1;exitY=0.5;exitDx=0;exitDy=0;entryX=0;entryY=0.5;entryDx=0;entryDy=0;labelBackgroundColor=default;strokeColor=default;fontFamily=Helvetica;fontSize=12;fontColor=default;startArrow=openThin;startFill=0;endArrow=classic;fillColor=#f8cecc;" edge="1" parent="1" source="DlSPAlc_z_FnGC_MYQ6c-46" target="DlSPAlc_z_FnGC_MYQ6c-107">
          <mxGeometry relative="1" as="geometry" />
        </mxCell>
        <mxCell id="DlSPAlc_z_FnGC_MYQ6c-46" value="&lt;font style=&quot;font-size: 20px;&quot;&gt;&lt;b&gt;Account&lt;/b&gt;&lt;/font&gt;" style="rounded=1;whiteSpace=wrap;html=1;" vertex="1" parent="1">
          <mxGeometry x="445" y="830" width="120" height="60" as="geometry" />
        </mxCell>
        <mxCell id="DlSPAlc_z_FnGC_MYQ6c-47" value="&lt;font style=&quot;font-size: 20px;&quot;&gt;Role&lt;br&gt;&lt;/font&gt;" style="rounded=1;whiteSpace=wrap;html=1;" vertex="1" parent="1">
          <mxGeometry x="215" y="950" width="120" height="60" as="geometry" />
        </mxCell>
        <mxCell id="DlSPAlc_z_FnGC_MYQ6c-48" value="&lt;font style=&quot;font-size: 20px;&quot;&gt;AuthInfo&lt;br&gt;&lt;/font&gt;" style="rounded=1;whiteSpace=wrap;html=1;" vertex="1" parent="1">
          <mxGeometry x="375" y="950" width="120" height="60" as="geometry" />
        </mxCell>
        <mxCell id="DlSPAlc_z_FnGC_MYQ6c-49" value="&lt;font style=&quot;font-size: 20px;&quot;&gt;Balance&lt;br&gt;&lt;/font&gt;" style="rounded=1;whiteSpace=wrap;html=1;" vertex="1" parent="1">
          <mxGeometry x="525" y="950" width="120" height="60" as="geometry" />
        </mxCell>
        <mxCell id="DlSPAlc_z_FnGC_MYQ6c-50" value="&lt;font style=&quot;font-size: 20px;&quot;&gt;AuditLog&lt;br&gt;&lt;/font&gt;" style="rounded=1;whiteSpace=wrap;html=1;" vertex="1" parent="1">
          <mxGeometry x="205" y="830" width="120" height="60" as="geometry" />
        </mxCell>
        <mxCell id="DlSPAlc_z_FnGC_MYQ6c-52" value="&lt;pre&gt;&lt;font style=&quot;font-size: 20px;&quot;&gt;Task domen&lt;/font&gt;&lt;/pre&gt;" style="text;html=1;strokeColor=none;fillColor=none;align=center;verticalAlign=middle;whiteSpace=wrap;rounded=0;fontSize=12;fontFamily=Helvetica;fontColor=default;" vertex="1" parent="1">
          <mxGeometry x="910" y="740" width="190" height="20" as="geometry" />
        </mxCell>
        <mxCell id="DlSPAlc_z_FnGC_MYQ6c-62" style="edgeStyle=none;shape=connector;rounded=0;orthogonalLoop=1;jettySize=auto;html=1;exitX=0.25;exitY=1;exitDx=0;exitDy=0;entryX=0.5;entryY=0;entryDx=0;entryDy=0;labelBackgroundColor=default;strokeColor=default;fontFamily=Helvetica;fontSize=12;fontColor=default;endArrow=classic;" edge="1" parent="1" source="DlSPAlc_z_FnGC_MYQ6c-65" target="DlSPAlc_z_FnGC_MYQ6c-66">
          <mxGeometry relative="1" as="geometry" />
        </mxCell>
        <mxCell id="DlSPAlc_z_FnGC_MYQ6c-63" style="edgeStyle=none;shape=connector;rounded=0;orthogonalLoop=1;jettySize=auto;html=1;exitX=0.5;exitY=1;exitDx=0;exitDy=0;entryX=0.5;entryY=0;entryDx=0;entryDy=0;labelBackgroundColor=default;strokeColor=default;fontFamily=Helvetica;fontSize=12;fontColor=default;endArrow=classic;" edge="1" parent="1" source="DlSPAlc_z_FnGC_MYQ6c-65" target="DlSPAlc_z_FnGC_MYQ6c-67">
          <mxGeometry relative="1" as="geometry" />
        </mxCell>
        <mxCell id="DlSPAlc_z_FnGC_MYQ6c-64" style="edgeStyle=none;shape=connector;rounded=0;orthogonalLoop=1;jettySize=auto;html=1;exitX=0.75;exitY=1;exitDx=0;exitDy=0;entryX=0.25;entryY=0;entryDx=0;entryDy=0;labelBackgroundColor=default;strokeColor=default;fontFamily=Helvetica;fontSize=12;fontColor=default;endArrow=classic;" edge="1" parent="1" source="DlSPAlc_z_FnGC_MYQ6c-65" target="DlSPAlc_z_FnGC_MYQ6c-68">
          <mxGeometry relative="1" as="geometry" />
        </mxCell>
        <mxCell id="DlSPAlc_z_FnGC_MYQ6c-65" value="&lt;font style=&quot;font-size: 20px;&quot;&gt;&lt;b&gt;Task&lt;/b&gt;&lt;/font&gt;" style="rounded=1;whiteSpace=wrap;html=1;" vertex="1" parent="1">
          <mxGeometry x="1010" y="805" width="120" height="60" as="geometry" />
        </mxCell>
        <mxCell id="DlSPAlc_z_FnGC_MYQ6c-66" value="&lt;font style=&quot;font-size: 20px;&quot;&gt;Descr&lt;/font&gt;" style="rounded=1;whiteSpace=wrap;html=1;" vertex="1" parent="1">
          <mxGeometry x="930" y="925" width="120" height="60" as="geometry" />
        </mxCell>
        <mxCell id="DlSPAlc_z_FnGC_MYQ6c-67" value="&lt;font style=&quot;font-size: 20px;&quot;&gt;Status&lt;/font&gt;" style="rounded=1;whiteSpace=wrap;html=1;" vertex="1" parent="1">
          <mxGeometry x="1080" y="925" width="120" height="60" as="geometry" />
        </mxCell>
        <mxCell id="DlSPAlc_z_FnGC_MYQ6c-68" value="&lt;font style=&quot;font-size: 20px;&quot;&gt;Assignee&lt;/font&gt;" style="rounded=1;whiteSpace=wrap;html=1;" vertex="1" parent="1">
          <mxGeometry x="1230" y="925" width="120" height="60" as="geometry" />
        </mxCell>
        <mxCell id="DlSPAlc_z_FnGC_MYQ6c-70" value="&lt;pre&gt;&lt;font style=&quot;font-size: 20px;&quot;&gt;Stats domen&lt;/font&gt;&lt;/pre&gt;" style="text;html=1;strokeColor=none;fillColor=none;align=center;verticalAlign=middle;whiteSpace=wrap;rounded=0;fontSize=12;fontFamily=Helvetica;fontColor=default;" vertex="1" parent="1">
          <mxGeometry x="855" y="1120" width="190" height="20" as="geometry" />
        </mxCell>
        <mxCell id="DlSPAlc_z_FnGC_MYQ6c-86" value="" style="rounded=1;whiteSpace=wrap;html=1;strokeColor=default;fontFamily=Helvetica;fontSize=12;fontColor=default;fillColor=default;" vertex="1" parent="1">
          <mxGeometry x="105" y="1120" width="680" height="350" as="geometry" />
        </mxCell>
        <mxCell id="DlSPAlc_z_FnGC_MYQ6c-87" value="&lt;pre&gt;&lt;font style=&quot;font-size: 20px;&quot;&gt;Auth domen&lt;/font&gt;&lt;/pre&gt;" style="text;html=1;strokeColor=none;fillColor=none;align=center;verticalAlign=middle;whiteSpace=wrap;rounded=0;fontSize=12;fontFamily=Helvetica;fontColor=default;" vertex="1" parent="1">
          <mxGeometry x="120" y="1130" width="190" height="20" as="geometry" />
        </mxCell>
        <mxCell id="DlSPAlc_z_FnGC_MYQ6c-88" style="edgeStyle=none;shape=connector;rounded=0;orthogonalLoop=1;jettySize=auto;html=1;exitX=0;exitY=0.5;exitDx=0;exitDy=0;entryX=0.5;entryY=0;entryDx=0;entryDy=0;labelBackgroundColor=default;strokeColor=default;fontFamily=Helvetica;fontSize=12;fontColor=default;endArrow=classic;" edge="1" parent="1" source="DlSPAlc_z_FnGC_MYQ6c-90" target="DlSPAlc_z_FnGC_MYQ6c-91">
          <mxGeometry relative="1" as="geometry" />
        </mxCell>
        <mxCell id="DlSPAlc_z_FnGC_MYQ6c-89" style="edgeStyle=none;shape=connector;rounded=0;orthogonalLoop=1;jettySize=auto;html=1;exitX=0.5;exitY=1;exitDx=0;exitDy=0;entryX=0.5;entryY=0;entryDx=0;entryDy=0;labelBackgroundColor=default;strokeColor=default;fontFamily=Helvetica;fontSize=12;fontColor=default;endArrow=classic;" edge="1" parent="1" source="DlSPAlc_z_FnGC_MYQ6c-90" target="DlSPAlc_z_FnGC_MYQ6c-92">
          <mxGeometry relative="1" as="geometry" />
        </mxCell>
        <mxCell id="DlSPAlc_z_FnGC_MYQ6c-90" value="&lt;font style=&quot;font-size: 20px;&quot;&gt;&lt;b&gt;Stats&lt;/b&gt;&lt;/font&gt;" style="rounded=1;whiteSpace=wrap;html=1;" vertex="1" parent="1">
          <mxGeometry x="1115" y="1180" width="120" height="60" as="geometry" />
        </mxCell>
        <mxCell id="DlSPAlc_z_FnGC_MYQ6c-91" value="&lt;font style=&quot;font-size: 20px;&quot;&gt;Topmsalary&lt;/font&gt;" style="rounded=1;whiteSpace=wrap;html=1;" vertex="1" parent="1">
          <mxGeometry x="955" y="1270" width="120" height="60" as="geometry" />
        </mxCell>
        <mxCell id="DlSPAlc_z_FnGC_MYQ6c-92" value="&lt;span style=&quot;font-size: 20px;&quot;&gt;MaxPrice&lt;/span&gt;" style="rounded=1;whiteSpace=wrap;html=1;" vertex="1" parent="1">
          <mxGeometry x="1105" y="1270" width="120" height="60" as="geometry" />
        </mxCell>
        <mxCell id="DlSPAlc_z_FnGC_MYQ6c-93" style="edgeStyle=none;shape=connector;rounded=0;orthogonalLoop=1;jettySize=auto;html=1;exitX=0.5;exitY=1;exitDx=0;exitDy=0;entryX=0.5;entryY=0;entryDx=0;entryDy=0;labelBackgroundColor=default;strokeColor=default;fontFamily=Helvetica;fontSize=12;fontColor=default;endArrow=classic;" edge="1" parent="1" source="DlSPAlc_z_FnGC_MYQ6c-94" target="DlSPAlc_z_FnGC_MYQ6c-95">
          <mxGeometry relative="1" as="geometry" />
        </mxCell>
        <mxCell id="DlSPAlc_z_FnGC_MYQ6c-103" style="edgeStyle=none;shape=connector;rounded=0;orthogonalLoop=1;jettySize=auto;html=1;exitX=0.75;exitY=1;exitDx=0;exitDy=0;entryX=0;entryY=0.5;entryDx=0;entryDy=0;labelBackgroundColor=default;strokeColor=default;fontFamily=Helvetica;fontSize=12;fontColor=default;startArrow=none;startFill=0;endArrow=classic;fillColor=#f8cecc;" edge="1" parent="1" source="DlSPAlc_z_FnGC_MYQ6c-94" target="DlSPAlc_z_FnGC_MYQ6c-99">
          <mxGeometry relative="1" as="geometry" />
        </mxCell>
        <mxCell id="DlSPAlc_z_FnGC_MYQ6c-94" value="&lt;font style=&quot;font-size: 20px;&quot;&gt;&lt;b&gt;Auth&lt;/b&gt;&lt;/font&gt;" style="rounded=1;whiteSpace=wrap;html=1;" vertex="1" parent="1">
          <mxGeometry x="300" y="1205" width="120" height="40" as="geometry" />
        </mxCell>
        <mxCell id="DlSPAlc_z_FnGC_MYQ6c-95" value="&lt;font style=&quot;font-size: 20px;&quot;&gt;AuthInfo&lt;br&gt;&lt;/font&gt;" style="rounded=1;whiteSpace=wrap;html=1;" vertex="1" parent="1">
          <mxGeometry x="310" y="1335" width="120" height="60" as="geometry" />
        </mxCell>
        <mxCell id="DlSPAlc_z_FnGC_MYQ6c-99" value="&lt;font style=&quot;font-size: 20px;&quot;&gt;Role&lt;br&gt;&lt;/font&gt;" style="rounded=1;whiteSpace=wrap;html=1;" vertex="1" parent="1">
          <mxGeometry x="525" y="1275" width="120" height="60" as="geometry" />
        </mxCell>
        <mxCell id="DlSPAlc_z_FnGC_MYQ6c-105" value="" style="endArrow=classic;startArrow=classic;html=1;rounded=0;labelBackgroundColor=default;strokeColor=#b85450;fontFamily=Helvetica;fontSize=12;fontColor=default;fillColor=#f8cecc;shape=connector;exitX=0.5;exitY=1;exitDx=0;exitDy=0;entryX=0.5;entryY=0;entryDx=0;entryDy=0;" edge="1" parent="1" source="DlSPAlc_z_FnGC_MYQ6c-47" target="DlSPAlc_z_FnGC_MYQ6c-99">
          <mxGeometry width="50" height="50" relative="1" as="geometry">
            <mxPoint x="620" y="1050" as="sourcePoint" />
            <mxPoint x="670" y="1000" as="targetPoint" />
          </mxGeometry>
        </mxCell>
        <mxCell id="DlSPAlc_z_FnGC_MYQ6c-109" style="edgeStyle=none;shape=connector;rounded=0;orthogonalLoop=1;jettySize=auto;html=1;exitX=1;exitY=0.5;exitDx=0;exitDy=0;entryX=0;entryY=0.5;entryDx=0;entryDy=0;labelBackgroundColor=default;strokeColor=#b85450;fontFamily=Helvetica;fontSize=12;fontColor=default;startArrow=openThin;startFill=0;endArrow=classic;fillColor=#f8cecc;" edge="1" parent="1" source="DlSPAlc_z_FnGC_MYQ6c-107" target="DlSPAlc_z_FnGC_MYQ6c-65">
          <mxGeometry relative="1" as="geometry" />
        </mxCell>
        <mxCell id="DlSPAlc_z_FnGC_MYQ6c-107" value="&lt;span style=&quot;font-size: 20px;&quot;&gt;Task&lt;/span&gt;" style="rounded=1;whiteSpace=wrap;html=1;" vertex="1" parent="1">
          <mxGeometry x="640" y="840" width="120" height="60" as="geometry" />
        </mxCell>
        <mxCell id="DlSPAlc_z_FnGC_MYQ6c-124" value="&lt;b&gt;Бизнес/CUD события&lt;/b&gt;" style="text;html=1;strokeColor=none;fillColor=none;align=center;verticalAlign=middle;whiteSpace=wrap;rounded=0;fontSize=19;fontFamily=Helvetica;fontColor=default;" vertex="1" parent="1">
          <mxGeometry x="155" y="1510" width="185" height="60" as="geometry" />
        </mxCell>
        <mxCell id="DlSPAlc_z_FnGC_MYQ6c-128" style="edgeStyle=none;shape=connector;rounded=0;orthogonalLoop=1;jettySize=auto;html=1;exitX=1;exitY=0.5;exitDx=0;exitDy=0;entryX=0;entryY=0.5;entryDx=0;entryDy=0;labelBackgroundColor=default;strokeColor=default;fontFamily=Helvetica;fontSize=12;fontColor=default;endArrow=classic;" edge="1" parent="1" source="DlSPAlc_z_FnGC_MYQ6c-126" target="DlSPAlc_z_FnGC_MYQ6c-127">
          <mxGeometry relative="1" as="geometry" />
        </mxCell>
        <mxCell id="DlSPAlc_z_FnGC_MYQ6c-129" value="Task.Created" style="edgeLabel;html=1;align=center;verticalAlign=middle;resizable=0;points=[];fontSize=20;fontFamily=Helvetica;fontColor=default;" vertex="1" connectable="0" parent="DlSPAlc_z_FnGC_MYQ6c-128">
          <mxGeometry x="-0.0559" y="-1" relative="1" as="geometry">
            <mxPoint as="offset" />
          </mxGeometry>
        </mxCell>
        <mxCell id="DlSPAlc_z_FnGC_MYQ6c-126" value="Task" style="rounded=0;whiteSpace=wrap;html=1;strokeColor=default;fontFamily=Helvetica;fontSize=20;fontColor=default;fillColor=default;" vertex="1" parent="1">
          <mxGeometry x="170" y="1800" width="120" height="60" as="geometry" />
        </mxCell>
        <mxCell id="DlSPAlc_z_FnGC_MYQ6c-131" style="edgeStyle=none;shape=connector;rounded=0;orthogonalLoop=1;jettySize=auto;html=1;exitX=1;exitY=0.5;exitDx=0;exitDy=0;entryX=0;entryY=0.5;entryDx=0;entryDy=0;labelBackgroundColor=default;strokeColor=default;fontFamily=Helvetica;fontSize=20;fontColor=default;endArrow=classic;" edge="1" parent="1" source="DlSPAlc_z_FnGC_MYQ6c-127" target="DlSPAlc_z_FnGC_MYQ6c-130">
          <mxGeometry relative="1" as="geometry" />
        </mxCell>
        <mxCell id="DlSPAlc_z_FnGC_MYQ6c-132" value="Balance.Changed (CUD)" style="edgeLabel;html=1;align=center;verticalAlign=middle;resizable=0;points=[];fontSize=20;fontFamily=Helvetica;fontColor=default;" vertex="1" connectable="0" parent="DlSPAlc_z_FnGC_MYQ6c-131">
          <mxGeometry x="-0.0667" relative="1" as="geometry">
            <mxPoint as="offset" />
          </mxGeometry>
        </mxCell>
        <mxCell id="DlSPAlc_z_FnGC_MYQ6c-127" value="Accounter" style="rounded=0;whiteSpace=wrap;html=1;strokeColor=default;fontFamily=Helvetica;fontSize=20;fontColor=default;fillColor=default;" vertex="1" parent="1">
          <mxGeometry x="515" y="1800" width="125" height="60" as="geometry" />
        </mxCell>
        <mxCell id="DlSPAlc_z_FnGC_MYQ6c-130" value="Stats" style="rounded=0;whiteSpace=wrap;html=1;strokeColor=default;fontFamily=Helvetica;fontSize=20;fontColor=default;fillColor=default;" vertex="1" parent="1">
          <mxGeometry x="970" y="1800" width="125" height="60" as="geometry" />
        </mxCell>
        <mxCell id="DlSPAlc_z_FnGC_MYQ6c-140" style="edgeStyle=none;shape=connector;rounded=0;orthogonalLoop=1;jettySize=auto;html=1;exitX=1;exitY=0.5;exitDx=0;exitDy=0;labelBackgroundColor=default;strokeColor=default;fontFamily=Helvetica;fontSize=20;fontColor=default;endArrow=classic;entryX=0;entryY=0.5;entryDx=0;entryDy=0;" edge="1" parent="1" source="DlSPAlc_z_FnGC_MYQ6c-167" target="DlSPAlc_z_FnGC_MYQ6c-138">
          <mxGeometry relative="1" as="geometry">
            <mxPoint x="540" y="1600" as="targetPoint" />
          </mxGeometry>
        </mxCell>
        <mxCell id="DlSPAlc_z_FnGC_MYQ6c-141" value="Account.Created" style="edgeLabel;html=1;align=center;verticalAlign=middle;resizable=0;points=[];fontSize=20;fontFamily=Helvetica;fontColor=default;" vertex="1" connectable="0" parent="DlSPAlc_z_FnGC_MYQ6c-140">
          <mxGeometry x="0.0797" y="1" relative="1" as="geometry">
            <mxPoint as="offset" />
          </mxGeometry>
        </mxCell>
        <mxCell id="DlSPAlc_z_FnGC_MYQ6c-138" value="Acounter" style="rounded=0;whiteSpace=wrap;html=1;strokeColor=default;fontFamily=Helvetica;fontSize=20;fontColor=default;fillColor=default;" vertex="1" parent="1">
          <mxGeometry x="600" y="1600" width="120" height="60" as="geometry" />
        </mxCell>
        <mxCell id="DlSPAlc_z_FnGC_MYQ6c-143" style="edgeStyle=none;shape=connector;rounded=0;orthogonalLoop=1;jettySize=auto;html=1;exitX=1;exitY=0.5;exitDx=0;exitDy=0;labelBackgroundColor=default;strokeColor=default;fontFamily=Helvetica;fontSize=20;fontColor=default;endArrow=classic;entryX=0;entryY=0.5;entryDx=0;entryDy=0;" edge="1" parent="1" source="DlSPAlc_z_FnGC_MYQ6c-142" target="DlSPAlc_z_FnGC_MYQ6c-145">
          <mxGeometry relative="1" as="geometry">
            <mxPoint x="650" y="1939.5555555555557" as="targetPoint" />
          </mxGeometry>
        </mxCell>
        <mxCell id="DlSPAlc_z_FnGC_MYQ6c-144" value="Task.Reassigned" style="edgeLabel;html=1;align=center;verticalAlign=middle;resizable=0;points=[];fontSize=20;fontFamily=Helvetica;fontColor=default;" vertex="1" connectable="0" parent="DlSPAlc_z_FnGC_MYQ6c-143">
          <mxGeometry x="-0.0086" y="-1" relative="1" as="geometry">
            <mxPoint as="offset" />
          </mxGeometry>
        </mxCell>
        <mxCell id="DlSPAlc_z_FnGC_MYQ6c-142" value="Task" style="rounded=0;whiteSpace=wrap;html=1;strokeColor=default;fontFamily=Helvetica;fontSize=20;fontColor=default;fillColor=default;" vertex="1" parent="1">
          <mxGeometry x="170" y="1910" width="120" height="60" as="geometry" />
        </mxCell>
        <mxCell id="DlSPAlc_z_FnGC_MYQ6c-145" value="Accounter" style="rounded=0;whiteSpace=wrap;html=1;strokeColor=default;fontFamily=Helvetica;fontSize=20;fontColor=default;fillColor=default;" vertex="1" parent="1">
          <mxGeometry x="515" y="1910" width="125" height="60" as="geometry" />
        </mxCell>
        <mxCell id="DlSPAlc_z_FnGC_MYQ6c-148" style="edgeStyle=none;shape=connector;rounded=0;orthogonalLoop=1;jettySize=auto;html=1;exitX=1;exitY=0.5;exitDx=0;exitDy=0;entryX=0;entryY=0.5;entryDx=0;entryDy=0;labelBackgroundColor=default;strokeColor=default;fontFamily=Helvetica;fontSize=20;fontColor=default;endArrow=classic;" edge="1" parent="1" target="DlSPAlc_z_FnGC_MYQ6c-150" source="DlSPAlc_z_FnGC_MYQ6c-145">
          <mxGeometry relative="1" as="geometry">
            <mxPoint x="680" y="1940" as="sourcePoint" />
          </mxGeometry>
        </mxCell>
        <mxCell id="DlSPAlc_z_FnGC_MYQ6c-149" value="Balance.Changed (CUD)" style="edgeLabel;html=1;align=center;verticalAlign=middle;resizable=0;points=[];fontSize=20;fontFamily=Helvetica;fontColor=default;" vertex="1" connectable="0" parent="DlSPAlc_z_FnGC_MYQ6c-148">
          <mxGeometry x="-0.0667" relative="1" as="geometry">
            <mxPoint as="offset" />
          </mxGeometry>
        </mxCell>
        <mxCell id="DlSPAlc_z_FnGC_MYQ6c-150" value="Stats" style="rounded=0;whiteSpace=wrap;html=1;strokeColor=default;fontFamily=Helvetica;fontSize=20;fontColor=default;fillColor=default;" vertex="1" parent="1">
          <mxGeometry x="975" y="1910" width="125" height="60" as="geometry" />
        </mxCell>
        <mxCell id="DlSPAlc_z_FnGC_MYQ6c-152" style="edgeStyle=none;shape=connector;rounded=0;orthogonalLoop=1;jettySize=auto;html=1;exitX=1;exitY=0.5;exitDx=0;exitDy=0;labelBackgroundColor=default;strokeColor=default;fontFamily=Helvetica;fontSize=20;fontColor=default;endArrow=classic;entryX=0;entryY=0.5;entryDx=0;entryDy=0;" edge="1" parent="1" source="DlSPAlc_z_FnGC_MYQ6c-154" target="DlSPAlc_z_FnGC_MYQ6c-155">
          <mxGeometry relative="1" as="geometry">
            <mxPoint x="650" y="2049.5555555555557" as="targetPoint" />
          </mxGeometry>
        </mxCell>
        <mxCell id="DlSPAlc_z_FnGC_MYQ6c-153" value="Task.Done" style="edgeLabel;html=1;align=center;verticalAlign=middle;resizable=0;points=[];fontSize=20;fontFamily=Helvetica;fontColor=default;" vertex="1" connectable="0" parent="DlSPAlc_z_FnGC_MYQ6c-152">
          <mxGeometry x="-0.0086" y="-1" relative="1" as="geometry">
            <mxPoint as="offset" />
          </mxGeometry>
        </mxCell>
        <mxCell id="DlSPAlc_z_FnGC_MYQ6c-154" value="Task" style="rounded=0;whiteSpace=wrap;html=1;strokeColor=default;fontFamily=Helvetica;fontSize=20;fontColor=default;fillColor=default;" vertex="1" parent="1">
          <mxGeometry x="170" y="2020" width="120" height="60" as="geometry" />
        </mxCell>
        <mxCell id="DlSPAlc_z_FnGC_MYQ6c-155" value="Accounter" style="rounded=0;whiteSpace=wrap;html=1;strokeColor=default;fontFamily=Helvetica;fontSize=20;fontColor=default;fillColor=default;" vertex="1" parent="1">
          <mxGeometry x="515" y="2020" width="125" height="60" as="geometry" />
        </mxCell>
        <mxCell id="DlSPAlc_z_FnGC_MYQ6c-156" style="edgeStyle=none;shape=connector;rounded=0;orthogonalLoop=1;jettySize=auto;html=1;exitX=1;exitY=0.5;exitDx=0;exitDy=0;entryX=0;entryY=0.5;entryDx=0;entryDy=0;labelBackgroundColor=default;strokeColor=default;fontFamily=Helvetica;fontSize=20;fontColor=default;endArrow=classic;" edge="1" parent="1" source="DlSPAlc_z_FnGC_MYQ6c-155" target="DlSPAlc_z_FnGC_MYQ6c-158">
          <mxGeometry relative="1" as="geometry">
            <mxPoint x="680" y="2050" as="sourcePoint" />
          </mxGeometry>
        </mxCell>
        <mxCell id="DlSPAlc_z_FnGC_MYQ6c-157" value="Balance.Changed (CUD)" style="edgeLabel;html=1;align=center;verticalAlign=middle;resizable=0;points=[];fontSize=20;fontFamily=Helvetica;fontColor=default;" vertex="1" connectable="0" parent="DlSPAlc_z_FnGC_MYQ6c-156">
          <mxGeometry x="-0.0667" relative="1" as="geometry">
            <mxPoint as="offset" />
          </mxGeometry>
        </mxCell>
        <mxCell id="DlSPAlc_z_FnGC_MYQ6c-158" value="Stats" style="rounded=0;whiteSpace=wrap;html=1;strokeColor=default;fontFamily=Helvetica;fontSize=20;fontColor=default;fillColor=default;" vertex="1" parent="1">
          <mxGeometry x="975" y="2020" width="125" height="60" as="geometry" />
        </mxCell>
        <mxCell id="DlSPAlc_z_FnGC_MYQ6c-160" style="edgeStyle=none;shape=connector;rounded=0;orthogonalLoop=1;jettySize=auto;html=1;exitX=1;exitY=0.5;exitDx=0;exitDy=0;labelBackgroundColor=default;strokeColor=default;fontFamily=Helvetica;fontSize=20;fontColor=default;endArrow=classic;entryX=0;entryY=0.5;entryDx=0;entryDy=0;" edge="1" parent="1" source="DlSPAlc_z_FnGC_MYQ6c-162" target="DlSPAlc_z_FnGC_MYQ6c-163">
          <mxGeometry relative="1" as="geometry">
            <mxPoint x="650" y="2179.5555555555557" as="targetPoint" />
          </mxGeometry>
        </mxCell>
        <mxCell id="DlSPAlc_z_FnGC_MYQ6c-161" value="NextDay" style="edgeLabel;html=1;align=center;verticalAlign=middle;resizable=0;points=[];fontSize=20;fontFamily=Helvetica;fontColor=default;" vertex="1" connectable="0" parent="DlSPAlc_z_FnGC_MYQ6c-160">
          <mxGeometry x="-0.0086" y="-1" relative="1" as="geometry">
            <mxPoint as="offset" />
          </mxGeometry>
        </mxCell>
        <mxCell id="DlSPAlc_z_FnGC_MYQ6c-162" value="Accounter" style="rounded=0;whiteSpace=wrap;html=1;strokeColor=default;fontFamily=Helvetica;fontSize=20;fontColor=default;fillColor=default;" vertex="1" parent="1">
          <mxGeometry x="170" y="2150" width="120" height="60" as="geometry" />
        </mxCell>
        <mxCell id="DlSPAlc_z_FnGC_MYQ6c-163" value="Accounter" style="rounded=0;whiteSpace=wrap;html=1;strokeColor=default;fontFamily=Helvetica;fontSize=20;fontColor=default;fillColor=default;" vertex="1" parent="1">
          <mxGeometry x="515" y="2150" width="125" height="60" as="geometry" />
        </mxCell>
        <mxCell id="DlSPAlc_z_FnGC_MYQ6c-164" style="edgeStyle=none;shape=connector;rounded=0;orthogonalLoop=1;jettySize=auto;html=1;exitX=1;exitY=0.5;exitDx=0;exitDy=0;entryX=0;entryY=0.5;entryDx=0;entryDy=0;labelBackgroundColor=default;strokeColor=default;fontFamily=Helvetica;fontSize=20;fontColor=default;endArrow=classic;" edge="1" parent="1" source="DlSPAlc_z_FnGC_MYQ6c-163" target="DlSPAlc_z_FnGC_MYQ6c-166">
          <mxGeometry relative="1" as="geometry">
            <mxPoint x="680" y="2180" as="sourcePoint" />
          </mxGeometry>
        </mxCell>
        <mxCell id="DlSPAlc_z_FnGC_MYQ6c-165" value="Balance.Changed (CUD)" style="edgeLabel;html=1;align=center;verticalAlign=middle;resizable=0;points=[];fontSize=20;fontFamily=Helvetica;fontColor=default;" vertex="1" connectable="0" parent="DlSPAlc_z_FnGC_MYQ6c-164">
          <mxGeometry x="-0.0667" relative="1" as="geometry">
            <mxPoint as="offset" />
          </mxGeometry>
        </mxCell>
        <mxCell id="DlSPAlc_z_FnGC_MYQ6c-166" value="Stats" style="rounded=0;whiteSpace=wrap;html=1;strokeColor=default;fontFamily=Helvetica;fontSize=20;fontColor=default;fillColor=default;" vertex="1" parent="1">
          <mxGeometry x="975" y="2150" width="125" height="60" as="geometry" />
        </mxCell>
        <mxCell id="DlSPAlc_z_FnGC_MYQ6c-167" value="Auth" style="rounded=0;whiteSpace=wrap;html=1;strokeColor=default;fontFamily=Helvetica;fontSize=20;fontColor=default;fillColor=default;" vertex="1" parent="1">
          <mxGeometry x="170" y="1600" width="120" height="60" as="geometry" />
        </mxCell>
        <mxCell id="DlSPAlc_z_FnGC_MYQ6c-168" style="edgeStyle=none;shape=connector;rounded=0;orthogonalLoop=1;jettySize=auto;html=1;exitX=1;exitY=0.5;exitDx=0;exitDy=0;labelBackgroundColor=default;strokeColor=default;fontFamily=Helvetica;fontSize=20;fontColor=default;endArrow=classic;entryX=0;entryY=0.5;entryDx=0;entryDy=0;" edge="1" parent="1" source="DlSPAlc_z_FnGC_MYQ6c-171" target="DlSPAlc_z_FnGC_MYQ6c-170">
          <mxGeometry relative="1" as="geometry">
            <mxPoint x="540" y="1680" as="targetPoint" />
          </mxGeometry>
        </mxCell>
        <mxCell id="DlSPAlc_z_FnGC_MYQ6c-169" value="Account.Authorized" style="edgeLabel;html=1;align=center;verticalAlign=middle;resizable=0;points=[];fontSize=20;fontFamily=Helvetica;fontColor=default;" vertex="1" connectable="0" parent="DlSPAlc_z_FnGC_MYQ6c-168">
          <mxGeometry x="0.0797" y="1" relative="1" as="geometry">
            <mxPoint as="offset" />
          </mxGeometry>
        </mxCell>
        <mxCell id="DlSPAlc_z_FnGC_MYQ6c-170" value="Accounter/TaskTracker/Stats" style="rounded=0;whiteSpace=wrap;html=1;strokeColor=default;fontFamily=Helvetica;fontSize=20;fontColor=default;fillColor=default;" vertex="1" parent="1">
          <mxGeometry x="600" y="1680" width="300" height="60" as="geometry" />
        </mxCell>
        <mxCell id="DlSPAlc_z_FnGC_MYQ6c-171" value="Auth" style="rounded=0;whiteSpace=wrap;html=1;strokeColor=default;fontFamily=Helvetica;fontSize=20;fontColor=default;fillColor=default;" vertex="1" parent="1">
          <mxGeometry x="170" y="1680" width="120" height="60" as="geometry" />
        </mxCell>
      </root>
    </mxGraphModel>
  </diagram>
</mxfile>
